<svg width="90" height="106" viewBox="0 0 90 106" fill="none" xmlns="http://www.w3.org/2000/svg">
<path d="M28.7207 75.7273C28.7205 74.9348 28.8913 74.1501 29.2233 73.4179C29.5554 72.6857 30.0423 72.0205 30.6561 71.4601C31.2699 70.8998 31.9986 70.4553 32.8007 70.1522C33.6027 69.849 34.4623 69.6931 35.3304 69.6933H58.3274C63.3926 69.6933 68.2502 67.8565 71.8319 64.5868C75.4135 61.3172 77.4256 56.8826 77.4256 52.2586C77.4256 47.6347 75.4135 43.2001 71.8319 39.9305C68.2502 36.6608 63.3926 34.824 58.3274 34.824H35.3304C33.5774 34.824 31.8962 34.1882 30.6566 33.0567C29.4171 31.9251 28.7207 30.3903 28.7207 28.79C28.7207 27.1897 29.4171 25.655 30.6566 24.5234C31.8962 23.3918 33.5774 22.7561 35.3304 22.7561H58.3274C66.7864 22.9133 74.8408 26.0913 80.7623 31.6081C86.6838 37.1249 90.0003 44.541 90.0003 52.2648C90.0003 59.9885 86.6838 67.4046 80.7623 72.9214C74.8408 78.4382 66.7864 81.6162 58.3274 81.7734H35.3304C33.5766 81.7688 31.8963 81.1299 30.6575 79.9967C29.4187 78.8635 28.7222 77.3283 28.7207 75.7273Z" fill="white"/>
<path d="M61.2739 6.04617C61.2742 6.83862 61.1034 7.62336 60.7713 8.35553C60.4392 9.08771 59.9524 9.75297 59.3385 10.3133C58.7247 10.8737 57.996 11.3181 57.1939 11.6213C56.3919 11.9244 55.5323 12.0803 54.6642 12.0801H31.6729C26.6078 12.0801 21.7501 13.917 18.1685 17.1866C14.5869 20.4562 12.5747 24.8908 12.5747 29.5148C12.5747 34.1388 14.5869 38.5733 18.1685 41.843C21.7501 45.1126 26.6078 46.9495 31.6729 46.9495H54.67C56.423 46.9495 58.1042 47.5852 59.3437 48.7168C60.5833 49.8484 61.2796 51.3831 61.2796 52.9834C61.2796 54.5837 60.5833 56.1185 59.3437 57.2501C58.1042 58.3817 56.423 59.0174 54.67 59.0174H31.6729C23.214 58.8602 15.1595 55.6822 9.23805 50.1653C3.31659 44.6485 0 37.2325 0 29.5087C0 21.7849 3.31659 14.3689 9.23805 8.85203C15.1595 3.33519 23.214 0.157186 31.6729 0H54.67C56.4227 0.00600267 58.1016 0.645492 59.3392 1.77857C60.5768 2.91165 61.2724 4.44607 61.2739 6.04617Z" fill="white"/>
<path d="M61.2739 53.0288C61.2742 53.8212 61.1034 54.606 60.7713 55.3381C60.4392 56.0703 59.9524 56.7356 59.3385 57.2959C58.7247 57.8563 57.996 58.3007 57.1939 58.6039C56.3919 58.907 55.5323 59.063 54.6642 59.0627H31.6729C26.6078 59.0627 21.7501 60.8996 18.1685 64.1692C14.5869 67.4389 12.5747 71.8734 12.5747 76.4974C12.5747 81.1214 14.5869 85.556 18.1685 88.8256C21.7501 92.0952 26.6078 93.9321 31.6729 93.9321H54.67C56.423 93.9321 58.1042 94.5678 59.3437 95.6994C60.5833 96.831 61.2796 98.3657 61.2796 99.966C61.2796 101.566 60.5833 103.101 59.3437 104.233C58.1042 105.364 56.423 106 54.67 106H31.6729C23.214 105.843 15.1595 102.665 9.23805 97.148C3.31659 91.6311 0 84.2151 0 76.4913C0 68.7675 3.31659 61.3515 9.23805 55.8346C15.1595 50.3178 23.214 47.1398 31.6729 46.9826H54.67C56.423 46.9877 58.1024 47.6269 59.3403 48.7602C60.5781 49.8934 61.2734 51.4284 61.2739 53.0288Z" fill="white"/>
</svg>
